<?xml version="1.0" encoding="UTF-8"?>
<!DOCTYPE svg PUBLIC "-//W3C//DTD SVG 1.1//EN" "http://www.w3.org/Graphics/SVG/1.1/DTD/svg11.dtd">
<svg xmlns="http://www.w3.org/2000/svg" version="1.1" width="859px" height="696px" style="shape-rendering:geometricPrecision; text-rendering:geometricPrecision; image-rendering:optimizeQuality; fill-rule:evenodd; clip-rule:evenodd" xmlns:xlink="http://www.w3.org/1999/xlink">
<g><path style="opacity:0.008" fill="#eb1b23" d="M -0.5,-0.5 C 285.833,-0.5 572.167,-0.5 858.5,-0.5C 858.5,231.5 858.5,463.5 858.5,695.5C 572.167,695.5 285.833,695.5 -0.5,695.5C -0.5,463.5 -0.5,231.5 -0.5,-0.5 Z M 772.5,394.5 C 755.812,381.658 739.812,367.825 724.5,353C 736.027,340.972 748.027,329.472 760.5,318.5C 762.404,318.262 763.738,317.262 764.5,315.5C 770.658,309.842 776.658,304.009 782.5,298C 785.833,295.667 789.167,293.333 792.5,291C 793.731,289.817 793.731,288.651 792.5,287.5C 760.895,281.177 729.228,275.177 697.5,269.5C 703.756,248.56 709.923,227.56 716,206.5C 719.009,198.8 722.009,191.133 725,183.5C 725.852,180.967 725.186,178.967 723,177.5C 693.875,186.876 664.875,196.876 636,207.5C 635.055,207.095 634.388,206.428 634,205.5C 627.575,175.524 621.241,145.524 615,115.5C 614.767,113.22 613.934,111.22 612.5,109.5C 595.702,169.571 579.702,229.904 564.5,290.5C 536.039,279.866 520.705,259.366 518.5,229C 520.106,217.213 521.273,205.38 522,193.5C 522.453,190.233 523.287,187.066 524.5,184C 521.706,166.007 525.873,149.841 537,135.5C 548.267,123.228 560.434,112.061 573.5,102C 582.554,96.8061 591.888,92.1394 601.5,88C 624.942,67.9464 650.275,65.2797 677.5,80C 679.792,81.2899 681.792,82.9565 683.5,85C 709.219,82.5291 729.886,91.5291 745.5,112C 762.533,123.551 771.699,139.718 773,160.5C 785.574,168.581 794.741,179.581 800.5,193.5C 824.029,208.892 833.529,230.558 829,258.5C 827.459,265.408 824.959,271.908 821.5,278C 829.176,298.497 831.676,319.664 829,341.5C 825.292,363.42 813.459,379.253 793.5,389C 786.567,391.648 779.567,393.482 772.5,394.5 Z"/></g>
<g><path style="opacity:0.008" fill="#7d0100" d="M 800.5,396.5 C 792.167,396.5 783.833,396.5 775.5,396.5C 774.29,396.068 773.29,395.401 772.5,394.5C 779.567,393.482 786.567,391.648 793.5,389C 813.459,379.253 825.292,363.42 829,341.5C 831.676,319.664 829.176,298.497 821.5,278C 824.959,271.908 827.459,265.408 829,258.5C 833.529,230.558 824.029,208.892 800.5,193.5C 794.741,179.581 785.574,168.581 773,160.5C 771.699,139.718 762.533,123.551 745.5,112C 729.886,91.5291 709.219,82.5291 683.5,85C 681.792,82.9565 679.792,81.2899 677.5,80C 650.275,65.2797 624.942,67.9464 601.5,88C 591.888,92.1394 582.554,96.8061 573.5,102C 560.434,112.061 548.267,123.228 537,135.5C 525.873,149.841 521.706,166.007 524.5,184C 523.287,187.066 522.453,190.233 522,193.5C 521.273,205.38 520.106,217.213 518.5,229C 520.705,259.366 536.039,279.866 564.5,290.5C 560.327,305.522 555.994,320.522 551.5,335.5C 539.131,315.111 527.131,294.444 515.5,273.5C 515.5,204.833 515.5,136.167 515.5,67.5C 621.167,67.5 726.833,67.5 832.5,67.5C 832.5,177.167 832.5,286.833 832.5,396.5C 821.833,396.5 811.167,396.5 800.5,396.5 Z"/></g>
<g><path style="opacity:0.985" fill="#080403" d="M 764.5,315.5 C 762.596,315.738 761.262,316.738 760.5,318.5C 748.027,329.472 736.027,340.972 724.5,353C 739.812,367.825 755.812,381.658 772.5,394.5C 773.29,395.401 774.29,396.068 775.5,396.5C 782.841,404.005 790.674,411.005 799,417.5C 799.432,418.6 798.932,419.267 797.5,419.5C 766.211,411.576 734.877,403.91 703.5,396.5C 700.465,395.626 697.465,394.626 694.5,393.5C 688.133,391.052 681.466,389.386 674.5,388.5C 639.036,380.458 603.702,371.791 568.5,362.5C 567.833,362.667 567.167,362.833 566.5,363C 573.333,374.183 580,385.35 586.5,396.5C 590.838,404.531 595.172,412.531 599.5,420.5C 632.246,476.583 664.579,532.917 696.5,589.5C 522.5,589.5 348.5,589.5 174.5,589.5C 174.687,587.436 175.187,585.436 176,583.5C 203.585,537.804 230.252,491.471 256,444.5C 265.966,428.066 275.799,411.566 285.5,395C 284.631,393.131 283.465,392.631 282,393.5C 280.333,392.833 278.667,392.167 277,391.5C 244.694,392.142 214.528,381.309 186.5,359C 181.06,353.936 176.06,348.436 171.5,342.5C 188.5,310.5 205.5,278.5 222.5,246.5C 223.5,245.167 224.5,245.167 225.5,246.5C 231.86,254.194 238.86,261.194 246.5,267.5C 262.689,278.212 279.189,285.879 296,290.5C 296.333,290.167 296.667,289.833 297,289.5C 305.633,291.079 314.3,292.412 323,293.5C 326.396,293.41 329.73,293.41 333,293.5C 336,294.5 339,295.5 342,296.5C 372.652,242.875 403.652,189.542 435,136.5C 438.323,141.136 441.657,145.803 445,150.5C 467.812,191.832 491.312,232.832 515.5,273.5C 527.131,294.444 539.131,315.111 551.5,335.5C 555.994,320.522 560.327,305.522 564.5,290.5C 579.702,229.904 595.702,169.571 612.5,109.5C 613.934,111.22 614.767,113.22 615,115.5C 621.241,145.524 627.575,175.524 634,205.5C 634.388,206.428 635.055,207.095 636,207.5C 664.875,196.876 693.875,186.876 723,177.5C 725.186,178.967 725.852,180.967 725,183.5C 722.009,191.133 719.009,198.8 716,206.5C 709.923,227.56 703.756,248.56 697.5,269.5C 729.228,275.177 760.895,281.177 792.5,287.5C 793.731,288.651 793.731,289.817 792.5,291C 789.167,293.333 785.833,295.667 782.5,298C 776.658,304.009 770.658,309.842 764.5,315.5 Z"/></g>
<g><path style="opacity:1" fill="#eb1c24" d="M 612.5,127.5 C 619.243,155.163 625.076,183.163 630,211.5C 609.333,248.167 588.667,284.833 568,321.5C 565,325.833 562,330.167 559,334.5C 559.034,331.824 559.534,329.157 560.5,326.5C 560.291,325.914 559.957,325.414 559.5,325C 576.958,258.994 594.624,193.161 612.5,127.5 Z"/></g>
<g><path style="opacity:1" fill="#8cc5d0" d="M 427.5,172.5 C 428.496,172.414 429.329,172.748 430,173.5C 430.667,268.167 430.667,362.833 430,457.5C 428.786,459.049 427.286,460.215 425.5,461C 355.711,494.394 286.045,528.061 216.5,562C 211.502,564.344 206.502,566.344 201.5,568C 201.043,567.586 200.709,567.086 200.5,566.5C 276.151,435.204 351.818,303.87 427.5,172.5 Z"/></g>
<g><path style="opacity:1" fill="#8cc5d0" d="M 441.5,172.5 C 445.134,176.411 448.301,180.744 451,185.5C 523.238,313.102 596.404,440.269 670.5,567C 669.407,568.365 668.074,568.699 666.5,568C 591.379,531.356 516.212,494.856 441,458.5C 440.169,363.097 440.336,267.763 441.5,172.5 Z"/></g>
<g><path style="opacity:1" fill="#fe7e26" d="M 715.5,182.5 C 716.525,182.897 716.692,183.563 716,184.5C 665.306,235.86 614.639,287.194 564,338.5C 563.333,337.167 563.333,335.833 564,334.5C 587.253,294.329 610.253,253.996 633,213.5C 655.667,205.277 678.501,197.444 701.5,190C 706.101,187.203 710.768,184.703 715.5,182.5 Z"/></g>
<g><path style="opacity:1" fill="#fef100" d="M 717.5,185.5 C 718.239,185.369 718.906,185.536 719.5,186C 709.557,214.736 699.724,243.57 690,272.5C 649.588,295.288 609.422,318.454 569.5,342C 568.5,342.667 567.5,342.667 566.5,342C 616.668,291.498 666.502,240.665 716,189.5C 716.791,188.255 717.291,186.922 717.5,185.5 Z"/></g>
<g><path style="opacity:1" fill="#fefffe" d="M 221.5,270.5 C 222.496,270.414 223.329,270.748 224,271.5C 234.833,306.667 245.667,341.833 256.5,377C 256.333,378.5 255.5,379.333 254,379.5C 226.443,374.465 202.943,361.632 183.5,341C 196.052,317.393 208.719,293.893 221.5,270.5 Z"/></g>
<g><path style="opacity:1" fill="#fefffe" d="M 234.5,270.5 C 262.744,292.827 294.577,303.827 330,303.5C 332.996,304.29 335.829,305.456 338.5,307C 328.326,324.888 318.159,342.721 308,360.5C 305.81,362.388 303.977,364.555 302.5,367C 290.268,371.257 278.101,374.757 266,377.5C 255.335,343.511 244.669,309.511 234,275.5C 233.36,273.735 233.527,272.068 234.5,270.5 Z"/></g>
<g><path style="opacity:1" fill="#0ed044" d="M 694.5,273.5 C 722.887,278.577 751.22,283.911 779.5,289.5C 709.793,309.456 639.959,329.123 570,348.5C 568.941,348.37 568.108,347.87 567.5,347C 609.896,322.473 652.23,297.973 694.5,273.5 Z"/></g>
<g><path style="opacity:1" fill="#3e47cb" d="M 775.5,293.5 C 779.527,293.281 780.194,294.448 777.5,297C 757.893,314.27 738.56,331.936 719.5,350C 718.167,350.667 716.833,351.333 715.5,352C 667.5,352.667 619.5,352.667 571.5,352C 638.816,332.25 706.483,313.25 774.5,295C 775.056,294.617 775.389,294.117 775.5,293.5 Z"/></g>
<g><path style="opacity:0.298" fill="#acacac" d="M 764.5,315.5 C 763.738,317.262 762.404,318.262 760.5,318.5C 761.262,316.738 762.596,315.738 764.5,315.5 Z"/></g>
<g><path style="opacity:1" fill="#b73dba" d="M 571.5,355.5 C 620.834,355.333 670.168,355.5 719.5,356C 736.833,370.667 754.167,385.333 771.5,400C 774.017,402.349 776.35,404.849 778.5,407.5C 778.167,408.5 777.5,409.167 776.5,409.5C 708.247,392.187 639.913,375.02 571.5,358C 570.402,357.23 570.402,356.397 571.5,355.5 Z"/></g>
<g><path style="opacity:0.008" fill="#7e0000" d="M 674.5,388.5 C 680.867,390.948 687.534,392.614 694.5,393.5C 697.465,394.626 700.465,395.626 703.5,396.5C 664.5,396.5 625.5,396.5 586.5,396.5C 580,385.35 573.333,374.183 566.5,363C 567.167,362.833 567.833,362.667 568.5,362.5C 603.702,371.791 639.036,380.458 674.5,388.5 Z"/></g>
<g><path style="opacity:1" fill="#fefffe" d="M 294.5,377.5 C 295.478,377.811 296.145,378.478 296.5,379.5C 293.706,385.342 289.706,386.175 284.5,382C 288.001,380.747 291.335,379.247 294.5,377.5 Z"/></g>
<g><path style="opacity:0.769" fill="#575757" d="M 674.5,388.5 C 681.466,389.386 688.133,391.052 694.5,393.5C 687.534,392.614 680.867,390.948 674.5,388.5 Z"/></g>
<g><path style="opacity:0.008" fill="#fe0000" d="M 586.5,396.5 C 625.5,396.5 664.5,396.5 703.5,396.5C 734.877,403.91 766.211,411.576 797.5,419.5C 798.932,419.267 799.432,418.6 799,417.5C 790.674,411.005 782.841,404.005 775.5,396.5C 783.833,396.5 792.167,396.5 800.5,396.5C 800.5,404.5 800.5,412.5 800.5,420.5C 733.5,420.5 666.5,420.5 599.5,420.5C 595.172,412.531 590.838,404.531 586.5,396.5 Z"/></g>
<g><path style="opacity:1" fill="#f9c417" d="M 428.5,467.5 C 429.117,467.611 429.617,467.944 430,468.5C 430.667,504.5 430.667,540.5 430,576.5C 429.5,577 429,577.5 428.5,578C 353.692,578.996 279.026,578.663 204.5,577C 279.104,540.197 353.771,503.697 428.5,467.5 Z"/></g>
<g><path style="opacity:1" fill="#fe7e26" d="M 441.5,468.5 C 516.083,504.125 590.416,540.291 664.5,577C 590.167,577.5 515.834,577.667 441.5,577.5C 441.5,541.167 441.5,504.833 441.5,468.5 Z"/></g>
</svg>
